<?xml version="1.0" encoding="UTF-8"?>
<!-- Generator: Adobe Illustrator 22.0.1, SVG Export Plug-In . SVG Version: 6.00 Build 0)  -->
<svg width="1351px" height="428px" viewBox="0 0 1351 428" version="1.1" xmlns="http://www.w3.org/2000/svg" xmlns:xlink="http://www.w3.org/1999/xlink">
    <style type="text/css">
        .st0{fill:#61819C;}
        .st1{fill:#0B3E69;}
        .st2{fill:#0F2D42;}
        .st3{filter:url(#Adobe_OpacityMaskFilter);}
        .st4{fill:#FFFFFF;}
        .st5{mask:url(#mask-2_1_);fill:#0082D7;}
        .st6{filter:url(#Adobe_OpacityMaskFilter_1_);}
        .st7{mask:url(#mask-4_1_);fill:#FFFFFF;}
    </style>
    <title>39409439-4500-4CAE-9C15-B162719D008C</title>
    <desc>Created with sketchtool.</desc>
    <g id="Symbols">
        <g id="cover-image">
            <g id="Cover-Image">
                <g id="Group-368" transform="translate(58.500000, 0.500000)">
                    <path id="Fill-2" class="st0" d="M728.5,91.5c-0.6,0-1-0.4-1-1V72.7l0.5-0.3L811.6,24H1073c0.6,0,1,0.4,1,1s-0.4,1-1,1H812.1      l-82.6,47.8v16.7C729.5,91.1,729.1,91.5,728.5,91.5"/>
                    <path id="Fill-4" class="st0" d="M405.5,211H140c-0.6,0-1-0.4-1-1s0.4-1,1-1h265.5c0.6,0,1,0.4,1,1S406.1,211,405.5,211"/>
                    <path id="Fill-6" class="st0" d="M405.5,126h-44.3l-0.2-0.1l-77.6-44.4H211c-0.6,0-1-0.4-1-1s0.4-1,1-1h72.9l0.2,0.1l77.6,44.4      h43.8c0.6,0,1,0.4,1,1S406.1,126,405.5,126"/>
                    <path id="Fill-8" class="st0" d="M52.5,234h-29c-0.6,0-1-0.4-1-1s0.4-1,1-1h28.4l21.9-12.5h331.7c0.6,0,1,0.4,1,1s-0.4,1-1,1      H74.3L52.5,234z"/>
                    <path id="Fill-10" class="st0" d="M49.6,292.1c-0.3,0-0.7-0.2-0.9-0.5c-0.3-0.5-0.1-1,0.4-1.3l72.8-42.3h0.3      c2.2,0,218.7,0.1,226.9,0l31-18h25.5c0.6,0,1,0.4,1,1c0,0.6-0.4,1-1,1h-24.9l-30.6,17.7c-0.2,0.2-0.6,0.2-3.2,0.2      c-1.7,0-4.1,0-7.2,0c-6.2,0-15.1,0-25.8,0c-21.3,0-49.7,0-78.1,0c-54.5,0-109,0-113.3,0L50.1,292      C50,292.1,49.8,292.1,49.6,292.1"/>
                    <path id="Fill-12" class="st0" d="M40.8,287.8c-5,0-9.1,4.1-9.1,9.1c0,5,4.1,9.1,9.1,9.1s9.1-4.1,9.1-9.1      C49.9,291.8,45.8,287.8,40.8,287.8 M40.8,307.9c-6.1,0-11.1-5-11.1-11.1c0-6.1,5-11.1,11.1-11.1c6.1,0,11.1,5,11.1,11.1      C51.9,303,46.9,307.9,40.8,307.9"/>
                    <path id="Fill-14" class="st0" d="M313.3,278.5h-16.8c-66.5,0-133-0.1-133-0.1c-0.6,0-1-0.5-1-1c0-0.6,0.4-1,1-1c0,0,0,0,0,0      c2.6,0,257.1,0.1,265.9,0l12.1-7v-3.8c0-0.6,0.4-1,1-1c0.6,0,1,0.4,1,1v5l-13.2,7.6c-0.3,0.2-0.6,0.2-3.6,0.2c-2,0-4.8,0-8.5,0      c-7.3,0-17.7,0.1-30.2,0.1C367.3,278.4,340.8,278.5,313.3,278.5"/>
                    <path id="Fill-16" class="st0" d="M157,272.2c-2.7,0-4.9,2.2-4.9,4.9c0,2.7,2.2,4.9,4.9,4.9c2.7,0,4.9-2.2,4.9-4.9      C161.9,274.4,159.7,272.2,157,272.2 M157,284c-3.8,0-6.9-3.1-6.9-6.9c0-3.8,3.1-6.9,6.9-6.9c3.8,0,6.9,3.1,6.9,6.9      C163.9,280.9,160.9,284,157,284"/>
                    <path id="Fill-18" class="st0" d="M277.1,350c-0.4,0-0.7-0.2-0.9-0.5c-0.3-0.5-0.1-1.1,0.4-1.4l73.1-40.2h122.5l53.8-31v-11.5      c0-0.6,0.4-1,1-1c0.6,0,1,0.4,1,1v12.6L472.8,310H350.3l-72.6,39.9C277.5,350,277.3,350,277.1,350"/>
                    <path id="Fill-20" class="st0" d="M271.5,346.9c-3.2,0-5.8,2.6-5.8,5.8s2.6,5.8,5.8,5.8s5.8-2.6,5.8-5.8      S274.7,346.9,271.5,346.9 M271.5,360.5c-4.3,0-7.8-3.5-7.8-7.8s3.5-7.8,7.8-7.8s7.8,3.5,7.8,7.8S275.8,360.5,271.5,360.5"/>
                    <path id="Fill-22" class="st0" d="M955.5,349.7c-0.2,0-0.3,0-0.5-0.1L884.7,310H761.2L706,278.1v-12.6c0-0.6,0.4-1,1-1      c0.6,0,1,0.4,1,1V277l53.8,31h123.5l0.2,0.1l70.5,39.7c0.5,0.3,0.7,0.9,0.4,1.4C956.2,349.5,955.8,349.7,955.5,349.7"/>
                    <path id="Fill-24" class="st0" d="M960.6,347.4c-2.5,0-4.5,2-4.5,4.5s2,4.5,4.5,4.5s4.5-2,4.5-4.5S963.1,347.4,960.6,347.4       M960.6,358.4c-3.6,0-6.5-2.9-6.5-6.5c0-3.6,2.9-6.5,6.5-6.5s6.5,2.9,6.5,6.5C967.1,355.5,964.2,358.4,960.6,358.4"/>
                    <path id="Fill-26" class="st0" d="M405.5,137H204.2l-30.6-17.5H1c-0.6,0-1-0.4-1-1s0.4-1,1-1h173.1l30.6,17.5h200.8      c0.6,0,1,0.4,1,1S406.1,137,405.5,137"/>
                    <path id="Fill-28" class="st0" d="M405.7,147.5l-206.5,0L167.5,129l-131.7,0.5h0c-0.6,0-1-0.4-1-1c0-0.6,0.4-1,1-1l132.2-0.5      l31.8,18.4l205.9,0c0.6,0,1,0.4,1,1C406.7,147.1,406.3,147.5,405.7,147.5"/>
                    <path id="Fill-30" class="st0" d="M229,179.3c-2.3,0-4.2,1.9-4.2,4.2c0,2.3,1.9,4.2,4.2,4.2s4.2-1.9,4.2-4.2      C233.2,181.2,231.4,179.3,229,179.3 M229,189.7c-3.4,0-6.2-2.8-6.2-6.2c0-3.4,2.8-6.2,6.2-6.2s6.2,2.8,6.2,6.2      C235.2,186.9,232.5,189.7,229,189.7"/>
                    <path id="Fill-32" class="st0" d="M184.6,184.7c-2.3,0-4.2,1.9-4.2,4.2c0,2.3,1.9,4.2,4.2,4.2c2.3,0,4.2-1.9,4.2-4.2      C188.8,186.6,186.9,184.7,184.6,184.7 M184.6,195.1c-3.4,0-6.2-2.8-6.2-6.2c0-3.4,2.8-6.2,6.2-6.2c3.4,0,6.2,2.8,6.2,6.2      C190.8,192.3,188,195.1,184.6,195.1"/>
                    <path id="Fill-34" class="st0" d="M29,123.7c-2.7,0-4.9,2.2-4.9,4.9c0,2.7,2.2,4.9,4.9,4.9s4.9-2.2,4.9-4.9      C33.9,125.9,31.7,123.7,29,123.7 M29,135.5c-3.8,0-6.9-3.1-6.9-6.9c0-3.8,3.1-6.9,6.9-6.9s6.9,3.1,6.9,6.9      C35.9,132.4,32.8,135.5,29,135.5"/>
                    <path id="Fill-36" class="st0" d="M201,71.9c-4.7,0-8.6,3.8-8.6,8.6s3.8,8.6,8.6,8.6c4.7,0,8.6-3.8,8.6-8.6S205.7,71.9,201,71.9       M201,91.1c-5.8,0-10.6-4.7-10.6-10.6c0-5.8,4.7-10.6,10.6-10.6c5.8,0,10.6,4.7,10.6,10.6C211.5,86.3,206.8,91.1,201,91.1"/>
                    <path id="Fill-38" class="st0" d="M527,91.5c-0.6,0-1-0.4-1-1V77.1l-75-42.7V23.5c0-0.6,0.4-1,1-1s1,0.4,1,1v9.8L528,76v14.5      C528,91.1,527.6,91.5,527,91.5"/>
                    <path id="Fill-40" class="st0" d="M452.2,16.4c-1.6,0-2.9,1.3-2.9,2.9c0,1.6,1.3,2.9,2.9,2.9s2.9-1.3,2.9-2.9      C455.1,17.7,453.8,16.4,452.2,16.4 M452.2,24.2c-2.7,0-4.9-2.2-4.9-4.9s2.2-4.9,4.9-4.9s4.9,2.2,4.9,4.9S454.9,24.2,452.2,24.2"/>
                    <path id="Fill-42" class="st0" d="M654.5,91.5c-0.6,0-1-0.4-1-1V77.1l-21-12V46c0-0.6,0.4-1,1-1s1,0.4,1,1v17.9l21,12v14.5      C655.5,91.1,655.1,91.5,654.5,91.5"/>
                    <path id="Fill-44" class="st0" d="M633.5,38c-1.6,0-2.9,1.3-2.9,2.9s1.3,2.9,2.9,2.9s2.9-1.3,2.9-2.9S635.1,38,633.5,38       M633.5,45.9c-2.7,0-4.9-2.2-4.9-4.9s2.2-4.9,4.9-4.9s4.9,2.2,4.9,4.9S636.2,45.9,633.5,45.9"/>
                    <path id="Fill-46" class="st0" d="M352,413.1c-3.3,0-6,2.7-6,6s2.7,6,6,6s6-2.7,6-6S355.3,413.1,352,413.1 M352,427.1      c-4.4,0-8-3.6-8-8c0-4.4,3.6-8,8-8s8,3.6,8,8C360,423.5,356.4,427.1,352,427.1"/>
                    <path id="Fill-48" class="st0" d="M897.8,379.7c-3.3,0-6,2.7-6,6s2.7,6,6,6c3.3,0,6-2.7,6-6S901.1,379.7,897.8,379.7       M897.8,393.7c-4.4,0-8-3.6-8-8c0-4.4,3.6-8,8-8s8,3.6,8,8C905.8,390.1,902.2,393.7,897.8,393.7"/>
                    <path id="Fill-50" class="st0" d="M538,91.5c-0.6,0-1-0.4-1-1V67.1l-47.5-27.5V20c0-0.6,0.4-1,1-1s1,0.4,1,1v18.4L539,66v24.5      C539,91.1,538.6,91.5,538,91.5"/>
                    <path id="Fill-52" class="st0" d="M490.3,12.5c-1.6,0-2.9,1.3-2.9,2.9s1.3,2.9,2.9,2.9c1.6,0,2.9-1.3,2.9-2.9      S491.9,12.5,490.3,12.5 M490.3,20.4c-2.7,0-4.9-2.2-4.9-4.9s2.2-4.9,4.9-4.9c2.7,0,4.9,2.2,4.9,4.9S493,20.4,490.3,20.4"/>
                    <path id="Fill-54" class="st0" d="M559,91.5c-0.6,0-1-0.4-1-1v-17l16.5-9.5V18.5c0-0.6,0.4-1,1-1s1,0.4,1,1v46.6L560,74.6v15.9      C560,91.1,559.6,91.5,559,91.5"/>
                    <path id="Fill-56" class="st0" d="M575.7,11.2c-1.6,0-2.9,1.3-2.9,2.9s1.3,2.9,2.9,2.9s2.9-1.3,2.9-2.9S577.3,11.2,575.7,11.2       M575.7,19.1c-2.7,0-4.9-2.2-4.9-4.9s2.2-4.9,4.9-4.9s4.9,2.2,4.9,4.9S578.4,19.1,575.7,19.1"/>
                    <path id="Fill-58" class="st0" d="M569.5,91.5c-0.6,0-1-0.4-1-1V78l16.5-9.5V50c0-0.6,0.4-1,1-1s1,0.4,1,1v19.6l-16.5,9.5v11.4      C570.5,91.1,570.1,91.5,569.5,91.5"/>
                    <path id="Fill-60" class="st0" d="M586.2,42.7c-1.6,0-2.9,1.3-2.9,2.9s1.3,2.9,2.9,2.9s2.9-1.3,2.9-2.9S587.8,42.7,586.2,42.7       M586.2,50.6c-2.7,0-4.9-2.2-4.9-4.9s2.2-4.9,4.9-4.9s4.9,2.2,4.9,4.9S588.9,50.6,586.2,50.6"/>
                    <path id="Fill-62" class="st0" d="M616.5,327.5c-0.6,0-1-0.4-1-1v-39.2l-15-9v-12.8c0-0.6,0.4-1,1-1s1,0.4,1,1v11.7l15,9v40.3      C617.5,327.1,617.1,327.5,616.5,327.5"/>
                    <path id="Fill-64" class="st0" d="M474.5,91.5c-0.6,0-1-0.4-1-1V76.6l-71.4-41.1H206.9l-41-23.7c-0.5-0.3-0.6-0.9-0.4-1.4      c0.3-0.5,0.9-0.6,1.4-0.4l40.5,23.4h195.2l0.2,0.1l72.7,41.8v15.1C475.5,91.1,475.1,91.5,474.5,91.5"/>
                    <path id="Fill-66" class="st0" d="M161.1,3.5c-2.5,0-4.5,2-4.5,4.5c0,2.5,2,4.5,4.5,4.5s4.5-2,4.5-4.5      C165.6,5.5,163.5,3.5,161.1,3.5 M161.1,14.5c-3.6,0-6.5-2.9-6.5-6.5c0-3.6,2.9-6.5,6.5-6.5s6.5,2.9,6.5,6.5      C167.6,11.6,164.6,14.5,161.1,14.5"/>
                    <path id="Fill-68" class="st0" d="M485,91.5c-0.6,0-1-0.4-1-1V70l-77.7-45H213.2l-14-8.1c-0.5-0.3-0.6-0.9-0.4-1.4      c0.3-0.5,0.9-0.6,1.4-0.4l13.6,7.8h193.1l0.2,0.1L486,68.9v21.6C486,91.1,485.6,91.5,485,91.5"/>
                    <path id="Fill-70" class="st0" d="M195.4,11.2c-1.6,0-2.9,1.3-2.9,2.9s1.3,2.9,2.9,2.9c1.6,0,2.9-1.3,2.9-2.9      S197.1,11.2,195.4,11.2 M195.4,19.1c-2.7,0-4.9-2.2-4.9-4.9s2.2-4.9,4.9-4.9c2.7,0,4.9,2.2,4.9,4.9S198.2,19.1,195.4,19.1"/>
                    <path id="Fill-72" class="st0" d="M548.5,91.5c-0.6,0-1-0.4-1-1V44c0-0.6,0.4-1,1-1s1,0.4,1,1v46.5      C549.5,91.1,549.1,91.5,548.5,91.5"/>
                    <path id="Fill-74" class="st0" d="M601.5,22c-1.6,0-2.9,1.3-2.9,2.9c0,1.6,1.3,2.9,2.9,2.9s2.9-1.3,2.9-2.9      C604.4,23.4,603.1,22,601.5,22 M601.5,29.9c-2.7,0-4.9-2.2-4.9-4.9s2.2-4.9,4.9-4.9s4.9,2.2,4.9,4.9S604.2,29.9,601.5,29.9"/>
                    <path id="Fill-76" class="st0" d="M601.5,91.5c-0.6,0-1-0.4-1-1v-61c0-0.6,0.4-1,1-1s1,0.4,1,1v61      C602.5,91.1,602.1,91.5,601.5,91.5"/>
                    <path id="Fill-78" class="st0" d="M591,308.7c-1.6,0-2.9,1.3-2.9,2.9s1.3,2.9,2.9,2.9s2.9-1.3,2.9-2.9S592.6,308.7,591,308.7       M591,316.6c-2.7,0-4.9-2.2-4.9-4.9s2.2-4.9,4.9-4.9s4.9,2.2,4.9,4.9S593.7,316.6,591,316.6"/>
                    <path id="Fill-80" class="st0" d="M591,308.5c-0.6,0-1-0.4-1-1v-42c0-0.6,0.4-1,1-1s1,0.4,1,1v42      C592,308.1,591.6,308.5,591,308.5"/>
                    <path id="Fill-82" class="st0" d="M686,306.6c-2.8,0-5,2.2-5,5c0,2.8,2.2,5,5,5s5-2.2,5-5C691,308.9,688.8,306.6,686,306.6       M686,318.6c-3.9,0-7-3.1-7-7c0-3.9,3.1-7,7-7s7,3.1,7,7C693,315.5,689.9,318.6,686,318.6"/>
                    <path id="Fill-84" class="st0" d="M686,307c-0.6,0-1-0.4-1-1v-40.5c0-0.6,0.4-1,1-1s1,0.4,1,1V306C687,306.6,686.6,307,686,307"/>
                    <path id="Fill-86" class="st0" d="M612,91.5c-0.6,0-1-0.4-1-1V55c0-0.6,0.4-1,1-1s1,0.4,1,1v35.5C613,91.1,612.6,91.5,612,91.5"/>
                    <path id="Fill-88" class="st0" d="M612,50.4c-0.8,0-1.5,0.7-1.5,1.5s0.7,1.5,1.5,1.5s1.5-0.7,1.5-1.5S612.8,50.4,612,50.4       M612,55.4c-1.9,0-3.5-1.6-3.5-3.5c0-1.9,1.6-3.5,3.5-3.5s3.5,1.6,3.5,3.5C615.5,53.8,613.9,55.4,612,55.4"/>
                    <path id="Fill-90" class="st0" d="M616.5,327.9c-1.1,0-2,0.9-2,2s0.9,2,2,2s2-0.9,2-2S617.6,327.9,616.5,327.9 M616.5,333.9      c-2.2,0-4-1.8-4-4s1.8-4,4-4s4,1.8,4,4S618.7,333.9,616.5,333.9"/>
                    <path id="Fill-92" class="st0" d="M749.5,91.5c-0.6,0-1-0.4-1-1v-14l10.1-6c0.5-0.3,1.1-0.1,1.4,0.4c0.3,0.5,0.1,1.1-0.4,1.4      l-9.1,5.4v12.9C750.5,91.1,750.1,91.5,749.5,91.5"/>
                    <path id="Fill-94" class="st0" d="M761.5,68.6c-0.8,0-1.5,0.7-1.5,1.5c0,0.8,0.7,1.5,1.5,1.5s1.5-0.7,1.5-1.5      C763,69.2,762.3,68.6,761.5,68.6 M761.5,73.5c-1.9,0-3.5-1.6-3.5-3.5c0-1.9,1.6-3.5,3.5-3.5s3.5,1.6,3.5,3.5      C765,71.9,763.4,73.5,761.5,73.5"/>
                    <path id="Fill-96" class="st0" d="M696.5,91.5c-0.6,0-1-0.4-1-1V67l29.6-16.8c0.5-0.3,1.1-0.1,1.4,0.4c0.3,0.5,0.1,1.1-0.4,1.4      l-28.6,16.2v22.4C697.5,91.1,697.1,91.5,696.5,91.5"/>
                    <path id="Fill-98" class="st0" d="M728,48.2c-0.8,0-1.5,0.7-1.5,1.5c0,0.8,0.7,1.5,1.5,1.5c0.8,0,1.5-0.7,1.5-1.5      C729.5,48.8,728.8,48.2,728,48.2 M728,53.1c-1.9,0-3.5-1.6-3.5-3.5c0-1.9,1.6-3.5,3.5-3.5s3.5,1.6,3.5,3.5      C731.5,51.6,729.9,53.1,728,53.1"/>
                    <path id="Fill-100" class="st0" d="M336.5,378c-0.6,0-1-0.4-1-1v-42.4L363,319h131l53.5-30.9v-22.6c0-0.6,0.4-1,1-1s1,0.4,1,1      v23.7l-55,31.8h-131l-26,14.7V377C337.5,377.6,337.1,378,336.5,378"/>
                    <path id="Fill-102" class="st0" d="M898,379.5c-0.6,0-1-0.4-1-1v-42.8L871,321H757.2l-0.2-0.1l-61.5-35.6v-19.7c0-0.6,0.4-1,1-1      s1,0.4,1,1v18.6l60.3,34.9h113.7l27.5,15.6v43.9C899,379.1,898.6,379.5,898,379.5"/>
                    <path id="Fill-104" class="st0" d="M538,280.5c-0.6,0-1-0.4-1-1v-14c0-0.6,0.4-1,1-1s1,0.4,1,1v14      C539,280.1,538.6,280.5,538,280.5"/>
                    <path id="Fill-106" class="st0" d="M559,296.5c-0.6,0-1-0.4-1-1v-30c0-0.6,0.4-1,1-1s1,0.4,1,1v30      C560,296.1,559.6,296.5,559,296.5"/>
                    <path id="Fill-108" class="st0" d="M538,280.8c-0.8,0-1.5,0.7-1.5,1.5c0,0.8,0.7,1.5,1.5,1.5s1.5-0.7,1.5-1.5      C539.5,281.4,538.8,280.8,538,280.8 M538,285.7c-1.9,0-3.5-1.6-3.5-3.5c0-1.9,1.6-3.5,3.5-3.5s3.5,1.6,3.5,3.5      C541.5,284.2,539.9,285.7,538,285.7"/>
                    <path id="Fill-110" class="st0" d="M484.1,287.6c-0.8,0-1.5,0.7-1.5,1.5c0,0.8,0.7,1.5,1.5,1.5c0.8,0,1.5-0.7,1.5-1.5      C485.5,288.3,484.9,287.6,484.1,287.6 M484.1,292.6c-1.9,0-3.5-1.6-3.5-3.5c0-1.9,1.6-3.5,3.5-3.5c1.9,0,3.5,1.6,3.5,3.5      C487.5,291,486,292.6,484.1,292.6"/>
                    <path id="Fill-112" class="st0" d="M135.3,206.5c-1.9,0-3.5,1.6-3.5,3.5s1.6,3.5,3.5,3.5s3.5-1.6,3.5-3.5      S137.2,206.5,135.3,206.5 M135.3,215.5c-3,0-5.5-2.5-5.5-5.5s2.5-5.5,5.5-5.5s5.5,2.5,5.5,5.5S138.3,215.5,135.3,215.5"/>
                    <path id="Fill-114" class="st0" d="M1210,221.5H828.5c-0.6,0-1-0.4-1-1s0.4-1,1-1H1210c0.6,0,1,0.4,1,1S1210.6,221.5,1210,221.5      "/>
                    <path id="Fill-116" class="st0" d="M1072.5,168.5h-244c-0.6,0-1-0.4-1-1s0.4-1,1-1h244c0.6,0,1,0.4,1,1      S1073.1,168.5,1072.5,168.5"/>
                    <path id="Fill-118" class="st0" d="M771,91.5c-0.6,0-1-0.4-1-1V78.3l0.5-0.3l62.6-36.5h312.4c0.6,0,1,0.4,1,1s-0.4,1-1,1H833.6      L772,79.4v11.1C772,91.1,771.6,91.5,771,91.5"/>
                    <path id="Fill-120" class="st0" d="M892.8,137h-64.3c-0.6,0-1-0.4-1-1s0.4-1,1-1h63.7l36.7-21h288.6c0.6,0,1,0.4,1,1s-0.4,1-1,1      H929.4L892.8,137z"/>
                    <path id="Fill-122" class="st0" d="M895.6,147.5h-67.1c-0.6,0-1-0.4-1-1s0.4-1,1-1h66.6l34.7-20H1136c0.6,0,1,0.4,1,1      s-0.4,1-1,1H930.3L895.6,147.5z"/>
                    <path id="Fill-124" class="st0" d="M1039,179H828.5c-0.6,0-1-0.4-1-1s0.4-1,1-1H1039c0.6,0,1,0.4,1,1S1039.6,179,1039,179"/>
                    <path id="Fill-126" class="st0" d="M1042.8,175.6c-1.3,0-2.4,1.1-2.4,2.4c0,1.3,1.1,2.4,2.4,2.4c1.3,0,2.4-1.1,2.4-2.4      C1045.3,176.7,1044.2,175.6,1042.8,175.6 M1042.8,182.4c-2.5,0-4.4-2-4.4-4.4c0-2.5,2-4.4,4.4-4.4s4.4,2,4.4,4.4      C1047.3,180.5,1045.3,182.4,1042.8,182.4"/>
                    <path id="Fill-128" class="st0" d="M1142.7,121.3c-2.7,0-4.9,2.2-4.9,4.9c0,2.7,2.2,4.9,4.9,4.9c2.7,0,4.9-2.2,4.9-4.9      C1147.6,123.5,1145.4,121.3,1142.7,121.3 M1142.7,133.2c-3.8,0-6.9-3.1-6.9-6.9c0-3.8,3.1-6.9,6.9-6.9s6.9,3.1,6.9,6.9      C1149.6,130.1,1146.5,133.2,1142.7,133.2"/>
                    <path id="Fill-130" class="st0" d="M843.4,126h-14.9c-0.6,0-1-0.4-1-1s0.4-1,1-1h14.3l22.7-13.1V99c0-0.6,0.4-1,1-1      c0.6,0,1,0.4,1,1v13.1L843.4,126z"/>
                    <path id="Fill-132" class="st0" d="M866.7,87.9c-2.7,0-4.9,2.2-4.9,4.9c0,2.7,2.2,4.9,4.9,4.9s4.9-2.2,4.9-4.9      C871.6,90.1,869.4,87.9,866.7,87.9 M866.7,99.7c-3.8,0-6.9-3.1-6.9-6.9c0-3.8,3.1-6.9,6.9-6.9c3.8,0,6.9,3.1,6.9,6.9      C873.6,96.6,870.5,99.7,866.7,99.7"/>
                    <path id="Fill-134" class="st0" d="M1204.4,279.2c-0.2,0-0.3,0-0.5-0.1l-58.7-34.1H865.5l-22.3-13h-14.7c-0.6,0-1-0.4-1-1      c0-0.6,0.4-1,1-1h15.3l22.3,13h279.7l59.1,34.4c0.5,0.3,0.6,0.9,0.4,1.4C1205.1,279.1,1204.8,279.2,1204.4,279.2"/>
                    <path id="Fill-136" class="st0" d="M1210.6,276.3c-2.7,0-4.9,2.2-4.9,4.9c0,2.7,2.2,4.9,4.9,4.9c2.7,0,4.9-2.2,4.9-4.9      C1215.5,278.5,1213.3,276.3,1210.6,276.3 M1210.6,288.2c-3.8,0-6.9-3.1-6.9-6.9c0-3.8,3.1-6.9,6.9-6.9s6.9,3.1,6.9,6.9      C1217.5,285.1,1214.4,288.2,1210.6,288.2"/>
                    <path id="Fill-138" class="st0" d="M718,91.5c-0.6,0-1-0.4-1-1v-22l0.5-0.3l94.6-54.7h119.6l11.4-6.9c0.5-0.3,1.1-0.1,1.4,0.3      c0.3,0.5,0.1,1.1-0.3,1.4l-11.9,7.2H812.6L719,69.6v20.9C719,91.1,718.6,91.5,718,91.5"/>
                    <path id="Fill-140" class="st0" d="M947.1,2.3c-1.6,0-2.9,1.3-2.9,2.9s1.3,2.9,2.9,2.9s2.9-1.3,2.9-2.9S948.7,2.3,947.1,2.3       M947.1,10.2c-2.7,0-4.9-2.2-4.9-4.9s2.2-4.9,4.9-4.9c2.7,0,4.9,2.2,4.9,4.9S949.8,10.2,947.1,10.2"/>
                    <path id="Fill-142" class="st0" d="M686,91.5c-0.6,0-1-0.4-1-1v-31l64.2-37.8c0.5-0.3,1.1-0.1,1.4,0.4c0.3,0.5,0.1,1.1-0.4,1.4      L687,60.6v29.9C687,91.1,686.6,91.5,686,91.5"/>
                    <path id="Fill-144" class="st0" d="M755,13.5c-2.8,0-5,2.2-5,5s2.2,5,5,5s5-2.2,5-5S757.8,13.5,755,13.5 M755,25.5      c-3.9,0-7-3.1-7-7s3.1-7,7-7s7,3.1,7,7S758.9,25.5,755,25.5"/>
                    <path id="Fill-146" class="st0" d="M1078,21.9c-1.6,0-2.9,1.3-2.9,2.9c0,1.6,1.3,2.9,2.9,2.9s2.9-1.3,2.9-2.9      C1080.9,23.2,1079.6,21.9,1078,21.9 M1078,29.8c-2.7,0-4.9-2.2-4.9-4.9s2.2-4.9,4.9-4.9s4.9,2.2,4.9,4.9S1080.7,29.8,1078,29.8"/>
                    <path id="Fill-148" class="st0" d="M675.5,91.5c-0.6,0-1-0.4-1-1V26c0-0.6,0.4-1,1-1s1,0.4,1,1v64.5      C676.5,91.1,676.1,91.5,675.5,91.5"/>
                    <path id="Fill-150" class="st0" d="M665,91.5c-0.6,0-1-0.4-1-1v-48c0-0.6,0.4-1,1-1s1,0.4,1,1v48C666,91.1,665.6,91.5,665,91.5"/>
                    <path id="Fill-152" class="st0" d="M675.5,14.7c-2.7,0-4.9,2.2-4.9,4.9c0,2.7,2.2,4.9,4.9,4.9s4.9-2.2,4.9-4.9      C680.4,16.9,678.2,14.7,675.5,14.7 M675.5,26.5c-3.8,0-6.9-3.1-6.9-6.9c0-3.8,3.1-6.9,6.9-6.9s6.9,3.1,6.9,6.9      C682.4,23.4,679.3,26.5,675.5,26.5"/>
                    <path id="Fill-154" class="st0" d="M675.5,295c-0.6,0-1-0.4-1-1v-28.5c0-0.6,0.4-1,1-1s1,0.4,1,1V294      C676.5,294.6,676.1,295,675.5,295"/>
                    <path id="Fill-156" class="st0" d="M675.5,295.2c-1.1,0-2,0.9-2,2c0,1.1,0.9,2,2,2s2-0.9,2-2      C677.5,296.1,676.6,295.2,675.5,295.2 M675.5,301.2c-2.2,0-4-1.8-4-4c0-2.2,1.8-4,4-4s4,1.8,4,4      C679.5,299.4,677.7,301.2,675.5,301.2"/>
                    <path id="Fill-158" class="st0" d="M548.5,32.7c-2.7,0-4.9,2.2-4.9,4.9c0,2.7,2.2,4.9,4.9,4.9s4.9-2.2,4.9-4.9      C553.4,34.9,551.2,32.7,548.5,32.7 M548.5,44.5c-3.8,0-6.9-3.1-6.9-6.9c0-3.8,3.1-6.9,6.9-6.9s6.9,3.1,6.9,6.9      C555.4,41.4,552.3,44.5,548.5,44.5"/>
                    <path id="Fill-160" class="st0" d="M665,37.5c-0.8,0-1.5,0.7-1.5,1.5c0,0.8,0.7,1.5,1.5,1.5s1.5-0.7,1.5-1.5      C666.5,38.1,665.8,37.5,665,37.5 M665,42.4c-1.9,0-3.5-1.6-3.5-3.5c0-1.9,1.6-3.5,3.5-3.5s3.5,1.6,3.5,3.5      C668.5,40.8,666.9,42.4,665,42.4"/>
                    <path id="Fill-162" class="st0" d="M495.5,91.5c-0.6,0-1-0.4-1-1V77c0-0.6,0.4-1,1-1s1,0.4,1,1v13.5      C496.5,91.1,496.1,91.5,495.5,91.5"/>
                    <path id="Fill-164" class="st0" d="M495.5,72c-0.8,0-1.5,0.7-1.5,1.5c0,0.8,0.7,1.5,1.5,1.5s1.5-0.7,1.5-1.5      C497,72.6,496.3,72,495.5,72 M495.5,76.9c-1.9,0-3.5-1.6-3.5-3.5c0-1.9,1.6-3.5,3.5-3.5s3.5,1.6,3.5,3.5      C499,75.3,497.4,76.9,495.5,76.9"/>
                    <path id="Fill-166" class="st0" d="M949,158H828.5c-0.6,0-1-0.4-1-1s0.4-1,1-1h120l14.6-8.7c0.5-0.3,1.1-0.1,1.4,0.3      c0.3,0.5,0.1,1.1-0.3,1.4L949,158z"/>
                    <path id="Fill-168" class="st0" d="M971,135.7c-4.1,0-7.5,3.4-7.5,7.5s3.4,7.5,7.5,7.5s7.5-3.4,7.5-7.5S975.1,135.7,971,135.7       M971,152.7c-5.2,0-9.5-4.3-9.5-9.5s4.3-9.5,9.5-9.5c5.2,0,9.5,4.3,9.5,9.5S976.2,152.7,971,152.7"/>
                    <path id="Fill-170" class="st0" d="M1191.5,204c-2.6,0-4.6,2.1-4.6,4.6c0,2.6,2.1,4.6,4.6,4.6s4.6-2.1,4.6-4.6      C1196.2,206.1,1194.1,204,1191.5,204 M1191.5,215.2c-3.7,0-6.6-3-6.6-6.6c0-3.7,3-6.6,6.6-6.6s6.6,3,6.6,6.6      C1198.2,212.3,1195.2,215.2,1191.5,215.2"/>
                    <path id="Fill-172" class="st0" d="M781.5,91.5c-0.6,0-1-0.4-1-1V83l36.4-21h198.4l27,15.8c0.5,0.3,0.6,0.9,0.4,1.4      c-0.3,0.5-0.9,0.6-1.4,0.4L1014.7,64H817.5l-35,20.2v6.3C782.5,91.1,782.1,91.5,781.5,91.5"/>
                    <path id="Fill-174" class="st0" d="M1047.1,77.2c-2.6,0-4.6,2.1-4.6,4.6c0,2.6,2.1,4.6,4.6,4.6s4.6-2.1,4.6-4.6      C1051.7,79.3,1049.6,77.2,1047.1,77.2 M1047.1,88.5c-3.7,0-6.6-3-6.6-6.6c0-3.7,3-6.6,6.6-6.6s6.6,3,6.6,6.6      C1053.7,85.5,1050.7,88.5,1047.1,88.5"/>
                    <path id="Fill-176" class="st0" d="M929.1,211H828.5c-0.6,0-1-0.4-1-1s0.4-1,1-1h100.1l11.2-6.6c0.5-0.3,1.1-0.1,1.4,0.4      c0.3,0.5,0.1,1.1-0.4,1.4L929.1,211z"/>
                    <path id="Fill-178" class="st0" d="M1185.5,209.5h-161l-0.2-0.1L990.7,190H828.5c-0.6,0-1-0.4-1-1s0.4-1,1-1h162.8l0.2,0.1      l33.5,19.4h160.5c0.6,0,1,0.4,1,1S1186.1,209.5,1185.5,209.5"/>
                    <path id="Fill-180" class="st0" d="M945.1,196.1c-2.2,0-4,1.8-4,4c0,2.2,1.8,4,4,4s4-1.8,4-4      C949.1,197.9,947.3,196.1,945.1,196.1 M945.1,206.1c-3.3,0-6-2.7-6-6c0-3.3,2.7-6,6-6s6,2.7,6,6      C951.1,203.4,948.4,206.1,945.1,206.1"/>
                    <path id="Fill-182" class="st0" d="M442.5,91.5c-0.6,0-1-0.4-1-1V76.8L418.9,64H145c-0.6,0-1-0.4-1-1s0.4-1,1-1h274.4l24.1,13.7      v14.8C443.5,91.1,443.1,91.5,442.5,91.5"/>
                    <path id="Fill-184" class="st0" d="M442.5,107c-0.6,0-1-0.4-1-1v-9.5c0-0.6,0.4-1,1-1s1,0.4,1,1v9.5      C443.5,106.6,443.1,107,442.5,107"/>
                    <path id="Fill-186" class="st0" d="M453,107c-0.6,0-1-0.4-1-1v-9.5c0-0.6,0.4-1,1-1s1,0.4,1,1v9.5C454,106.6,453.6,107,453,107"/>
                    <path id="Fill-188" class="st0" d="M463.5,107c-0.6,0-1-0.4-1-1v-9.5c0-0.6,0.4-1,1-1s1,0.4,1,1v9.5      C464.5,106.6,464.1,107,463.5,107"/>
                    <path id="Fill-190" class="st0" d="M474.5,107c-0.6,0-1-0.4-1-1v-9.5c0-0.6,0.4-1,1-1s1,0.4,1,1v9.5      C475.5,106.6,475.1,107,474.5,107"/>
                    <path id="Fill-192" class="st0" d="M485,107c-0.6,0-1-0.4-1-1v-9.5c0-0.6,0.4-1,1-1s1,0.4,1,1v9.5C486,106.6,485.6,107,485,107"/>
                    <path id="Fill-194" class="st0" d="M495.5,107c-0.6,0-1-0.4-1-1v-9.5c0-0.6,0.4-1,1-1s1,0.4,1,1v9.5      C496.5,106.6,496.1,107,495.5,107"/>
                    <path id="Fill-196" class="st0" d="M506,107c-0.6,0-1-0.4-1-1v-9.5c0-0.6,0.4-1,1-1s1,0.4,1,1v9.5C507,106.6,506.6,107,506,107"/>
                    <path id="Fill-198" class="st0" d="M516.5,107c-0.6,0-1-0.4-1-1v-9.5c0-0.6,0.4-1,1-1s1,0.4,1,1v9.5      C517.5,106.6,517.1,107,516.5,107"/>
                    <path id="Fill-200" class="st0" d="M527,107c-0.6,0-1-0.4-1-1v-9.5c0-0.6,0.4-1,1-1s1,0.4,1,1v9.5C528,106.6,527.6,107,527,107"/>
                    <path id="Fill-202" class="st0" d="M538,107c-0.6,0-1-0.4-1-1v-9.5c0-0.6,0.4-1,1-1s1,0.4,1,1v9.5C539,106.6,538.6,107,538,107"/>
                    <path id="Fill-204" class="st0" d="M548.5,107c-0.6,0-1-0.4-1-1v-9.5c0-0.6,0.4-1,1-1s1,0.4,1,1v9.5      C549.5,106.6,549.1,107,548.5,107"/>
                    <path id="Fill-206" class="st0" d="M559,107c-0.6,0-1-0.4-1-1v-9.5c0-0.6,0.4-1,1-1s1,0.4,1,1v9.5C560,106.6,559.6,107,559,107"/>
                    <path id="Fill-208" class="st0" d="M569.5,107c-0.6,0-1-0.4-1-1v-9.5c0-0.6,0.4-1,1-1s1,0.4,1,1v9.5      C570.5,106.6,570.1,107,569.5,107"/>
                    <path id="Fill-210" class="st0" d="M580,107c-0.6,0-1-0.4-1-1v-9.5c0-0.6,0.4-1,1-1s1,0.4,1,1v9.5C581,106.6,580.6,107,580,107"/>
                    <path id="Fill-212" class="st0" d="M591,107c-0.6,0-1-0.4-1-1v-9.5c0-0.6,0.4-1,1-1s1,0.4,1,1v9.5C592,106.6,591.6,107,591,107"/>
                    <path id="Fill-214" class="st0" d="M601.5,107c-0.6,0-1-0.4-1-1v-9.5c0-0.6,0.4-1,1-1s1,0.4,1,1v9.5      C602.5,106.6,602.1,107,601.5,107"/>
                    <path id="Fill-216" class="st0" d="M612,107c-0.6,0-1-0.4-1-1v-9.5c0-0.6,0.4-1,1-1s1,0.4,1,1v9.5C613,106.6,612.6,107,612,107"/>
                    <path id="Fill-218" class="st0" d="M622.5,107c-0.6,0-1-0.4-1-1v-9.5c0-0.6,0.4-1,1-1s1,0.4,1,1v9.5      C623.5,106.6,623.1,107,622.5,107"/>
                    <path id="Fill-220" class="st0" d="M633,107c-0.6,0-1-0.4-1-1v-9.5c0-0.6,0.4-1,1-1s1,0.4,1,1v9.5C634,106.6,633.6,107,633,107"/>
                    <path id="Fill-222" class="st0" d="M643.5,107c-0.6,0-1-0.4-1-1v-9.5c0-0.6,0.4-1,1-1s1,0.4,1,1v9.5      C644.5,106.6,644.1,107,643.5,107"/>
                    <path id="Fill-224" class="st0" d="M654.5,107c-0.6,0-1-0.4-1-1v-9.5c0-0.6,0.4-1,1-1s1,0.4,1,1v9.5      C655.5,106.6,655.1,107,654.5,107"/>
                    <path id="Fill-226" class="st0" d="M665,107c-0.6,0-1-0.4-1-1v-9.5c0-0.6,0.4-1,1-1s1,0.4,1,1v9.5C666,106.6,665.6,107,665,107"/>
                    <path id="Fill-228" class="st0" d="M675.5,107c-0.6,0-1-0.4-1-1v-9.5c0-0.6,0.4-1,1-1s1,0.4,1,1v9.5      C676.5,106.6,676.1,107,675.5,107"/>
                    <path id="Fill-230" class="st0" d="M686,107c-0.6,0-1-0.4-1-1v-9.5c0-0.6,0.4-1,1-1s1,0.4,1,1v9.5C687,106.6,686.6,107,686,107"/>
                    <path id="Fill-232" class="st0" d="M696.5,107c-0.6,0-1-0.4-1-1v-9.5c0-0.6,0.4-1,1-1s1,0.4,1,1v9.5      C697.5,106.6,697.1,107,696.5,107"/>
                    <path id="Fill-234" class="st0" d="M707.5,107c-0.6,0-1-0.4-1-1v-9.5c0-0.6,0.4-1,1-1s1,0.4,1,1v9.5      C708.5,106.6,708.1,107,707.5,107"/>
                    <path id="Fill-236" class="st0" d="M718,107c-0.6,0-1-0.4-1-1v-9.5c0-0.6,0.4-1,1-1s1,0.4,1,1v9.5C719,106.6,718.6,107,718,107"/>
                    <path id="Fill-238" class="st0" d="M728.5,107c-0.6,0-1-0.4-1-1v-9.5c0-0.6,0.4-1,1-1s1,0.4,1,1v9.5      C729.5,106.6,729.1,107,728.5,107"/>
                    <path id="Fill-240" class="st0" d="M739,107c-0.6,0-1-0.4-1-1v-9.5c0-0.6,0.4-1,1-1s1,0.4,1,1v9.5C740,106.6,739.6,107,739,107"/>
                    <path id="Fill-242" class="st0" d="M749.5,107c-0.6,0-1-0.4-1-1v-9.5c0-0.6,0.4-1,1-1s1,0.4,1,1v9.5      C750.5,106.6,750.1,107,749.5,107"/>
                    <path id="Fill-244" class="st0" d="M760,107c-0.6,0-1-0.4-1-1v-9.5c0-0.6,0.4-1,1-1s1,0.4,1,1v9.5C761,106.6,760.6,107,760,107"/>
                    <path id="Fill-246" class="st0" d="M771,107c-0.6,0-1-0.4-1-1v-9.5c0-0.6,0.4-1,1-1s1,0.4,1,1v9.5C772,106.6,771.6,107,771,107"/>
                    <path id="Fill-248" class="st0" d="M781.5,107c-0.6,0-1-0.4-1-1v-9.5c0-0.6,0.4-1,1-1s1,0.4,1,1v9.5      C782.5,106.6,782.1,107,781.5,107"/>
                    <path id="Fill-250" class="st0" d="M792,107c-0.6,0-1-0.4-1-1v-9.5c0-0.6,0.4-1,1-1s1,0.4,1,1v9.5C793,106.6,792.6,107,792,107"/>
                    <path id="Fill-252" class="st0" d="M442.5,260.5c-0.6,0-1-0.4-1-1V250c0-0.6,0.4-1,1-1s1,0.4,1,1v9.5      C443.5,260.1,443.1,260.5,442.5,260.5"/>
                    <path id="Fill-254" class="st0" d="M453,260.5c-0.6,0-1-0.4-1-1V250c0-0.6,0.4-1,1-1s1,0.4,1,1v9.5      C454,260.1,453.6,260.5,453,260.5"/>
                    <path id="Fill-256" class="st0" d="M463.5,260.5c-0.6,0-1-0.4-1-1V250c0-0.6,0.4-1,1-1s1,0.4,1,1v9.5      C464.5,260.1,464.1,260.5,463.5,260.5"/>
                    <path id="Fill-258" class="st0" d="M474.5,260.5c-0.6,0-1-0.4-1-1V250c0-0.6,0.4-1,1-1s1,0.4,1,1v9.5      C475.5,260.1,475.1,260.5,474.5,260.5"/>
                    <path id="Fill-260" class="st0" d="M485,260.5c-0.6,0-1-0.4-1-1V250c0-0.6,0.4-1,1-1s1,0.4,1,1v9.5      C486,260.1,485.6,260.5,485,260.5"/>
                    <path id="Fill-262" class="st0" d="M495.5,260.5c-0.6,0-1-0.4-1-1V250c0-0.6,0.4-1,1-1s1,0.4,1,1v9.5      C496.5,260.1,496.1,260.5,495.5,260.5"/>
                    <path id="Fill-264" class="st0" d="M506,260.5c-0.6,0-1-0.4-1-1V250c0-0.6,0.4-1,1-1s1,0.4,1,1v9.5      C507,260.1,506.6,260.5,506,260.5"/>
                    <path id="Fill-266" class="st0" d="M516.5,260.5c-0.6,0-1-0.4-1-1V250c0-0.6,0.4-1,1-1s1,0.4,1,1v9.5      C517.5,260.1,517.1,260.5,516.5,260.5"/>
                    <path id="Fill-268" class="st0" d="M527,260.5c-0.6,0-1-0.4-1-1V250c0-0.6,0.4-1,1-1s1,0.4,1,1v9.5      C528,260.1,527.6,260.5,527,260.5"/>
                    <path id="Fill-270" class="st0" d="M538,260.5c-0.6,0-1-0.4-1-1V250c0-0.6,0.4-1,1-1s1,0.4,1,1v9.5      C539,260.1,538.6,260.5,538,260.5"/>
                    <path id="Fill-272" class="st0" d="M548.5,260.5c-0.6,0-1-0.4-1-1V250c0-0.6,0.4-1,1-1s1,0.4,1,1v9.5      C549.5,260.1,549.1,260.5,548.5,260.5"/>
                    <path id="Fill-274" class="st0" d="M559,260.5c-0.6,0-1-0.4-1-1V250c0-0.6,0.4-1,1-1s1,0.4,1,1v9.5      C560,260.1,559.6,260.5,559,260.5"/>
                    <path id="Fill-276" class="st0" d="M569.5,260.5c-0.6,0-1-0.4-1-1V250c0-0.6,0.4-1,1-1s1,0.4,1,1v9.5      C570.5,260.1,570.1,260.5,569.5,260.5"/>
                    <path id="Fill-278" class="st0" d="M580,260.5c-0.6,0-1-0.4-1-1V250c0-0.6,0.4-1,1-1s1,0.4,1,1v9.5      C581,260.1,580.6,260.5,580,260.5"/>
                    <path id="Fill-280" class="st0" d="M591,260.5c-0.6,0-1-0.4-1-1V250c0-0.6,0.4-1,1-1s1,0.4,1,1v9.5      C592,260.1,591.6,260.5,591,260.5"/>
                    <path id="Fill-282" class="st0" d="M601.5,260.5c-0.6,0-1-0.4-1-1V250c0-0.6,0.4-1,1-1s1,0.4,1,1v9.5      C602.5,260.1,602.1,260.5,601.5,260.5"/>
                    <path id="Fill-284" class="st0" d="M612,260.5c-0.6,0-1-0.4-1-1V250c0-0.6,0.4-1,1-1s1,0.4,1,1v9.5      C613,260.1,612.6,260.5,612,260.5"/>
                    <path id="Fill-286" class="st0" d="M622.5,260.5c-0.6,0-1-0.4-1-1V250c0-0.6,0.4-1,1-1s1,0.4,1,1v9.5      C623.5,260.1,623.1,260.5,622.5,260.5"/>
                    <path id="Fill-288" class="st0" d="M633,260.5c-0.6,0-1-0.4-1-1V250c0-0.6,0.4-1,1-1s1,0.4,1,1v9.5      C634,260.1,633.6,260.5,633,260.5"/>
                    <path id="Fill-290" class="st0" d="M643.5,260.5c-0.6,0-1-0.4-1-1V250c0-0.6,0.4-1,1-1s1,0.4,1,1v9.5      C644.5,260.1,644.1,260.5,643.5,260.5"/>
                    <path id="Fill-292" class="st0" d="M654.5,260.5c-0.6,0-1-0.4-1-1V250c0-0.6,0.4-1,1-1s1,0.4,1,1v9.5      C655.5,260.1,655.1,260.5,654.5,260.5"/>
                    <path id="Fill-294" class="st0" d="M665,260.5c-0.6,0-1-0.4-1-1V250c0-0.6,0.4-1,1-1s1,0.4,1,1v9.5      C666,260.1,665.6,260.5,665,260.5"/>
                    <path id="Fill-296" class="st0" d="M675.5,260.5c-0.6,0-1-0.4-1-1V250c0-0.6,0.4-1,1-1s1,0.4,1,1v9.5      C676.5,260.1,676.1,260.5,675.5,260.5"/>
                    <path id="Fill-298" class="st0" d="M686,260.5c-0.6,0-1-0.4-1-1V250c0-0.6,0.4-1,1-1s1,0.4,1,1v9.5      C687,260.1,686.6,260.5,686,260.5"/>
                    <path id="Fill-300" class="st0" d="M696.5,260.5c-0.6,0-1-0.4-1-1V250c0-0.6,0.4-1,1-1s1,0.4,1,1v9.5      C697.5,260.1,697.1,260.5,696.5,260.5"/>
                    <path id="Fill-302" class="st0" d="M707.5,260.5c-0.6,0-1-0.4-1-1V250c0-0.6,0.4-1,1-1s1,0.4,1,1v9.5      C708.5,260.1,708.1,260.5,707.5,260.5"/>
                    <path id="Fill-304" class="st0" d="M718,260.5c-0.6,0-1-0.4-1-1V250c0-0.6,0.4-1,1-1s1,0.4,1,1v9.5      C719,260.1,718.6,260.5,718,260.5"/>
                    <path id="Fill-306" class="st0" d="M728.5,260.5c-0.6,0-1-0.4-1-1V250c0-0.6,0.4-1,1-1s1,0.4,1,1v9.5      C729.5,260.1,729.1,260.5,728.5,260.5"/>
                    <path id="Fill-308" class="st0" d="M739,260.5c-0.6,0-1-0.4-1-1V250c0-0.6,0.4-1,1-1s1,0.4,1,1v9.5      C740,260.1,739.6,260.5,739,260.5"/>
                    <path id="Fill-310" class="st0" d="M749.5,260.5c-0.6,0-1-0.4-1-1V250c0-0.6,0.4-1,1-1s1,0.4,1,1v9.5      C750.5,260.1,750.1,260.5,749.5,260.5"/>
                    <path id="Fill-312" class="st0" d="M760,260.5c-0.6,0-1-0.4-1-1V250c0-0.6,0.4-1,1-1s1,0.4,1,1v9.5      C761,260.1,760.6,260.5,760,260.5"/>
                    <path id="Fill-314" class="st0" d="M771,260.5c-0.6,0-1-0.4-1-1V250c0-0.6,0.4-1,1-1s1,0.4,1,1v9.5      C772,260.1,771.6,260.5,771,260.5"/>
                    <path id="Fill-316" class="st0" d="M781.5,260.5c-0.6,0-1-0.4-1-1V250c0-0.6,0.4-1,1-1s1,0.4,1,1v9.5      C782.5,260.1,782.1,260.5,781.5,260.5"/>
                    <path id="Fill-318" class="st0" d="M792,260.5c-0.6,0-1-0.4-1-1V250c0-0.6,0.4-1,1-1s1,0.4,1,1v9.5      C793,260.1,792.6,260.5,792,260.5"/>
                    <path id="Fill-320" class="st0" d="M420.5,126H411c-0.6,0-1-0.4-1-1s0.4-1,1-1h9.5c0.6,0,1,0.4,1,1S421.1,126,420.5,126"/>
                    <path id="Fill-322" class="st0" d="M420.5,137H411c-0.6,0-1-0.4-1-1s0.4-1,1-1h9.5c0.6,0,1,0.4,1,1S421.1,137,420.5,137"/>
                    <path id="Fill-324" class="st0" d="M420.5,147.5H411c-0.6,0-1-0.4-1-1s0.4-1,1-1h9.5c0.6,0,1,0.4,1,1S421.1,147.5,420.5,147.5"/>
                    <path id="Fill-326" class="st0" d="M420.5,158H411c-0.6,0-1-0.4-1-1s0.4-1,1-1h9.5c0.6,0,1,0.4,1,1S421.1,158,420.5,158"/>
                    <path id="Fill-328" class="st0" d="M420.5,168.5H411c-0.6,0-1-0.4-1-1s0.4-1,1-1h9.5c0.6,0,1,0.4,1,1S421.1,168.5,420.5,168.5"/>
                    <path id="Fill-330" class="st0" d="M420.5,179H411c-0.6,0-1-0.4-1-1s0.4-1,1-1h9.5c0.6,0,1,0.4,1,1S421.1,179,420.5,179"/>
                    <path id="Fill-332" class="st0" d="M420.5,190H411c-0.6,0-1-0.4-1-1s0.4-1,1-1h9.5c0.6,0,1,0.4,1,1S421.1,190,420.5,190"/>
                    <path id="Fill-334" class="st0" d="M420.5,200.5H411c-0.6,0-1-0.4-1-1s0.4-1,1-1h9.5c0.6,0,1,0.4,1,1S421.1,200.5,420.5,200.5"/>
                    <path id="Fill-336" class="st0" d="M421,211h-9.5c-0.6,0-1-0.4-1-1s0.4-1,1-1h9.5c0.6,0,1,0.4,1,1S421.6,211,421,211"/>
                    <path id="Fill-338" class="st0" d="M421,221.5h-9.5c-0.6,0-1-0.4-1-1s0.4-1,1-1h9.5c0.6,0,1,0.4,1,1S421.6,221.5,421,221.5"/>
                    <path id="Fill-340" class="st0" d="M421,232h-9.5c-0.6,0-1-0.4-1-1s0.4-1,1-1h9.5c0.6,0,1,0.4,1,1S421.6,232,421,232"/>
                    <path id="Fill-342" class="st0" d="M822.5,126H813c-0.6,0-1-0.4-1-1s0.4-1,1-1h9.5c0.6,0,1,0.4,1,1S823.1,126,822.5,126"/>
                    <path id="Fill-344" class="st0" d="M822.5,137H813c-0.6,0-1-0.4-1-1s0.4-1,1-1h9.5c0.6,0,1,0.4,1,1S823.1,137,822.5,137"/>
                    <path id="Fill-346" class="st0" d="M822.5,147.5H813c-0.6,0-1-0.4-1-1s0.4-1,1-1h9.5c0.6,0,1,0.4,1,1S823.1,147.5,822.5,147.5"/>
                    <path id="Fill-348" class="st0" d="M822.5,158H813c-0.6,0-1-0.4-1-1s0.4-1,1-1h9.5c0.6,0,1,0.4,1,1S823.1,158,822.5,158"/>
                    <path id="Fill-350" class="st0" d="M822.5,168.5H813c-0.6,0-1-0.4-1-1s0.4-1,1-1h9.5c0.6,0,1,0.4,1,1S823.1,168.5,822.5,168.5"/>
                    <path id="Fill-352" class="st0" d="M822.5,179H813c-0.6,0-1-0.4-1-1s0.4-1,1-1h9.5c0.6,0,1,0.4,1,1S823.1,179,822.5,179"/>
                    <path id="Fill-354" class="st0" d="M822.5,190H813c-0.6,0-1-0.4-1-1s0.4-1,1-1h9.5c0.6,0,1,0.4,1,1S823.1,190,822.5,190"/>
                    <path id="Fill-356" class="st0" d="M822.5,200.5H813c-0.6,0-1-0.4-1-1s0.4-1,1-1h9.5c0.6,0,1,0.4,1,1S823.1,200.5,822.5,200.5"/>
                    <path id="Fill-358" class="st0" d="M823,211h-9.5c-0.6,0-1-0.4-1-1s0.4-1,1-1h9.5c0.6,0,1,0.4,1,1S823.6,211,823,211"/>
                    <path id="Fill-360" class="st0" d="M823,221.5h-9.5c-0.6,0-1-0.4-1-1s0.4-1,1-1h9.5c0.6,0,1,0.4,1,1S823.6,221.5,823,221.5"/>
                    <path id="Fill-362" class="st0" d="M823,232h-9.5c-0.6,0-1-0.4-1-1s0.4-1,1-1h9.5c0.6,0,1,0.4,1,1S823.6,232,823,232"/>
                    <polygon id="Fill-364" class="st1" points="802.9,102.5 803,102.5 431.3,102.5 431.3,102.5 417.1,116.7 417,116.7 417,239.2      417.1,239.3 431.3,253.5 803,253.5 817,239.2 817,116.7     "/>
                    <polygon id="Fill-366" class="st2" points="802.9,102.5 803,102.5 431.3,102.5 431.3,102.5 417.1,116.7 417,116.7 417,239.2      417.1,239.3 431.3,253.5 803,253.5 817,239.2 817,116.7     "/>
                </g>
                <g id="Group-371" transform="translate(521.500000, 143.500000)">
                    <g id="Clip-370">
                    </g>
                    <defs>
                        <filter id="Adobe_OpacityMaskFilter" filterUnits="userSpaceOnUse" x="-7" y="-7" width="82.5" height="84">
                            <feColorMatrix type="matrix" values="1 0 0 0 0  0 1 0 0 0  0 0 1 0 0  0 0 0 1 0"/>
                        </filter>
                    </defs>
                    <mask maskUnits="userSpaceOnUse" x="-7" y="-7" width="82.5" height="84" id="mask-2_1_">
                        <g class="st3">
                            <path id="path-1_1_" class="st4" d="M14,0h54.5v54.5H14V26h7v22h40.5V7H21v4h-7V0z M0,15.5h54.5V44h-7V22h-41v41h41v-4.5h7V70        H0V15.5z"/>
                        </g>
                    </mask>
                    <polygon id="Fill-369" class="st5" points="-7,77 75.5,77 75.5,-7 -7,-7     "/>
                </g>
                <g id="Group-374" transform="translate(611.000000, 158.500000)">
                    <g id="Clip-373">
                    </g>
                    <defs>
                        <filter id="Adobe_OpacityMaskFilter_1_" filterUnits="userSpaceOnUse" x="-7" y="-7" width="233.5" height="54">
                            <feColorMatrix type="matrix" values="1 0 0 0 0  0 1 0 0 0  0 0 1 0 0  0 0 0 1 0"/>
                        </filter>
                    </defs>
                    <mask maskUnits="userSpaceOnUse" x="-7" y="-7" width="233.5" height="54" id="mask-4_1_">
                        <g class="st6">
                            <path id="path-3_1_" class="st4" d="M213.8,0l-8.9,15.9l-0.4,1.6l-0.4-1.6L195.3,0h-5.4l11.9,19.6L189.6,40h5.5l9.1-16.5        l0.4-1.5l0.4,1.5l9.2,16.5h5.5l-12.2-20.4L219.2,0H213.8z M158,0v40h23v-4h-18.5V21.5H179V18h-16.5V4H181V0H158z M121,0h11.5        c8.8,0,14,4.6,14,12.2c0,6.5-3.4,10.5-8.7,11.7l1.2,1.2L148,40h-5.3l-8.7-15.5h-8.6V40H121V0z M125.5,4v17h7.5        c5.3,0,8.9-2.8,8.9-8.6c0-5.3-3.2-8.4-8.6-8.4H125.5z M84.5,0v4H96v36h4.5V4h11V0H84.5z M51.5,0v4h11v36H67V4h11V0H51.5z         M37,40h4.5V0H37V40z M0,0h12.7c8,0,12.6,3.7,12.6,10c0,4.8-2.3,8.1-6.5,9.4c5.3,1.2,8.4,4.9,8.4,9.6c0,6.9-5,10.9-13.3,10.9        H0V0z M4.5,4v14h8.8c4.5,0,7.5-2.9,7.5-7.5c0-4.1-2.9-6.5-8-6.5H4.5z M4.5,21.5V36h9.4c5.5,0,8.7-2.6,8.7-7.1        c0-4.6-3.3-7.4-8.4-7.4H4.5z"/>
                        </g>
                    </mask>
                    <polygon id="Fill-372" class="st7" points="-7,47 226.5,47 226.5,-7 -7,-7     "/>
                </g>
                <g id="Group-461" transform="translate(0.500000, 18.000000)">
                    <path id="Fill-375" class="st0" d="M463.5,172.5h-70.9l-34.2-20h-81.3l-29.6,17c-0.5,0.3-1.1,0.1-1.4-0.4      c-0.3-0.5-0.1-1.1,0.4-1.4l30.1-17.2H359l34.2,20h70.3c0.6,0,1,0.4,1,1S464.1,172.5,463.5,172.5"/>
                    <path id="Fill-377" class="st0" d="M213.8,288.9c-0.3,0-0.7-0.2-0.9-0.5c-0.3-0.5-0.1-1.1,0.4-1.4l30.7-17.5h245.6l30.9-17.9      V248c0-0.6,0.4-1,1-1c0.6,0,1,0.4,1,1v4.8l-32.4,18.7H244.5l-30.2,17.3C214.2,288.9,214,288.9,213.8,288.9"/>
                    <path id="Fill-379" class="st0" d="M410,395.5c-0.6,0-1-0.4-1-1v-68.1l23.7-13.9h0.3c0.3,0,173.9-0.2,181.8-0.2l22.3-12.7V248      c0-0.6,0.4-1,1-1s1,0.4,1,1v52.8l-23.7,13.7H615c-7.3,0-174.2,0.2-181.8,0.2L411,327.6v66.9C411,395.1,410.6,395.5,410,395.5"/>
                    <path id="Fill-381" class="st0" d="M527.5,263c-1.9,0-3.5,1.6-3.5,3.5s1.6,3.5,3.5,3.5s3.5-1.6,3.5-3.5S529.4,263,527.5,263       M527.5,272c-3,0-5.5-2.5-5.5-5.5s2.5-5.5,5.5-5.5c3,0,5.5,2.5,5.5,5.5S530.5,272,527.5,272"/>
                    <path id="Fill-383" class="st0" d="M394.7,360.5c-1.9,0-3.5,1.6-3.5,3.5s1.6,3.5,3.5,3.5s3.5-1.6,3.5-3.5      S396.6,360.5,394.7,360.5 M394.7,369.5c-3,0-5.5-2.5-5.5-5.5s2.5-5.5,5.5-5.5s5.5,2.5,5.5,5.5S397.7,369.5,394.7,369.5"/>
                    <path id="Fill-385" class="st0" d="M941,400.2c-1.9,0-3.5,1.6-3.5,3.5c0,1.9,1.6,3.5,3.5,3.5s3.5-1.6,3.5-3.5      C944.5,401.7,942.9,400.2,941,400.2 M941,409.2c-3,0-5.5-2.5-5.5-5.5c0-3,2.5-5.5,5.5-5.5c3,0,5.5,2.5,5.5,5.5      C946.5,406.7,944,409.2,941,409.2"/>
                    <path id="Fill-387" class="st0" d="M531.5,264.9c-0.3,0-0.7-0.2-0.9-0.5c-0.3-0.5-0.1-1.1,0.4-1.4l11-6.4V248c0-0.6,0.4-1,1-1      c0.6,0,1,0.4,1,1v9.8l-12,6.9C531.8,264.8,531.7,264.9,531.5,264.9"/>
                    <path id="Fill-389" class="st0" d="M812.5,263c-1.9,0-3.5,1.6-3.5,3.5s1.6,3.5,3.5,3.5s3.5-1.6,3.5-3.5S814.5,263,812.5,263       M812.5,272c-3,0-5.5-2.5-5.5-5.5s2.5-5.5,5.5-5.5c3,0,5.5,2.5,5.5,5.5S815.6,272,812.5,272"/>
                    <path id="Fill-391" class="st0" d="M808.5,264.9c-0.2,0-0.3,0-0.5-0.1l-12-6.9V248c0-0.6,0.4-1,1-1c0.6,0,1,0.4,1,1v8.6l11,6.4      c0.5,0.3,0.6,0.9,0.4,1.4C809.2,264.7,808.8,264.9,808.5,264.9"/>
                    <path id="Fill-393" class="st0" d="M544.7,271.3c-0.3,0-0.7-0.2-0.9-0.5c-0.3-0.5-0.1-1.1,0.4-1.4l8.3-4.8V248c0-0.6,0.4-1,1-1      c0.6,0,1,0.4,1,1v17.8l-9.3,5.4C545,271.3,544.9,271.3,544.7,271.3"/>
                    <path id="Fill-395" class="st0" d="M463.5,161.5h-61.9L364.3,140H213.5l-19.3,11.5h-50.8c-0.6,0-1-0.4-1-1s0.4-1,1-1h50.2      L213,138h151.9l37.3,21.5h61.3c0.6,0,1,0.4,1,1S464.1,161.5,463.5,161.5"/>
                    <path id="Fill-397" class="st0" d="M463.5,183h-81.1l-28.3-16H293c-0.6,0-1-0.4-1-1s0.4-1,1-1h61.6l28.3,16h80.6      c0.6,0,1,0.4,1,1S464.1,183,463.5,183"/>
                    <path id="Fill-399" class="st0" d="M1163.3,288.5L1163.3,288.5l-72-2l-41-24H851.1l-12.6-7.2V248c0-0.6,0.4-1,1-1      c0.6,0,1,0.4,1,1v6.1l11.1,6.4h199.2l0.2,0.1l40.8,23.9l71.5,1.9c0.6,0,1,0.5,1,1C1164.2,288,1163.8,288.5,1163.3,288.5"/>
                    <path id="Fill-401" class="st0" d="M1100.2,300.3c-1.9,0-3.5,1.6-3.5,3.5s1.6,3.5,3.5,3.5c1.9,0,3.5-1.6,3.5-3.5      S1102.1,300.3,1100.2,300.3 M1100.2,309.3c-3,0-5.5-2.5-5.5-5.5s2.5-5.5,5.5-5.5s5.5,2.5,5.5,5.5S1103.2,309.3,1100.2,309.3"/>
                    <path id="Fill-403" class="st0" d="M1095.7,301.4c-0.2,0-0.3,0-0.5-0.1l-49.1-29.2H847.8l-0.2-0.1l-30.6-17V248c0-0.6,0.4-1,1-1      c0.6,0,1,0.4,1,1v5.7l29.4,16.3h198.3l49.6,29.5c0.5,0.3,0.6,0.9,0.3,1.4C1096.3,301.2,1096,301.4,1095.7,301.4"/>
                    <path id="Fill-405" class="st0" d="M617,279.7c-3.8,0-6.8,3.1-6.8,6.8c0,3.8,3.1,6.8,6.8,6.8s6.8-3.1,6.8-6.8      C623.8,282.7,620.8,279.7,617,279.7 M617,295.3c-4.9,0-8.8-4-8.8-8.8c0-4.9,4-8.8,8.8-8.8s8.8,4,8.8,8.8      C625.8,291.4,621.9,295.3,617,295.3"/>
                    <path id="Fill-407" class="st0" d="M416.5,146.8c-1.8,0-3.3,1.5-3.3,3.3s1.5,3.3,3.3,3.3c1.8,0,3.3-1.5,3.3-3.3      S418.3,146.8,416.5,146.8 M416.5,155.3c-2.9,0-5.3-2.4-5.3-5.3s2.4-5.3,5.3-5.3c2.9,0,5.3,2.4,5.3,5.3S419.4,155.3,416.5,155.3"/>
                    <path id="Fill-409" class="st0" d="M463.5,151H421c-0.6,0-1-0.4-1-1s0.4-1,1-1h42.5c0.6,0,1,0.4,1,1S464.1,151,463.5,151"/>
                    <path id="Fill-411" class="st0" d="M691,281c-0.6,0-1-0.4-1-1v-32c0-0.6,0.4-1,1-1s1,0.4,1,1v32C692,280.6,691.6,281,691,281"/>
                    <path id="Fill-413" class="st0" d="M701.5,296.7c-1.6,0-2.9,1.3-2.9,2.9s1.3,2.9,2.9,2.9s2.9-1.3,2.9-2.9      S703.1,296.7,701.5,296.7 M701.5,304.6c-2.7,0-4.9-2.2-4.9-4.9s2.2-4.9,4.9-4.9s4.9,2.2,4.9,4.9S704.2,304.6,701.5,304.6"/>
                    <path id="Fill-415" class="st0" d="M701.5,296.5c-0.6,0-1-0.4-1-1V248c0-0.6,0.4-1,1-1s1,0.4,1,1v47.5      C702.5,296.1,702.1,296.5,701.5,296.5"/>
                    <path id="Fill-417" class="st0" d="M691,281.6c-0.8,0-1.5,0.7-1.5,1.5c0,0.8,0.7,1.5,1.5,1.5s1.5-0.7,1.5-1.5      C692.5,282.3,691.8,281.6,691,281.6 M691,286.6c-1.9,0-3.5-1.6-3.5-3.5c0-1.9,1.6-3.5,3.5-3.5s3.5,1.6,3.5,3.5      C694.5,285,692.9,286.6,691,286.6"/>
                    <path id="Fill-419" class="st0" d="M1312.8,62c-19.6,0-35.5,15.9-35.5,35.5s15.9,35.5,35.5,35.5s35.5-15.9,35.5-35.5      S1332.4,62,1312.8,62 M1312.8,135c-20.7,0-37.5-16.8-37.5-37.5s16.8-37.5,37.5-37.5s37.5,16.8,37.5,37.5S1333.5,135,1312.8,135"/>
                    <path id="Fill-423" class="st0" d="M164.4,9.4c-20,0-36.2,16.3-36.2,36.2c0,20,16.3,36.2,36.2,36.2c20,0,36.2-16.3,36.2-36.2      C200.6,25.7,184.3,9.4,164.4,9.4 M164.4,83.9c-21.1,0-38.2-17.2-38.2-38.2s17.2-38.2,38.2-38.2s38.2,17.1,38.2,38.2      S185.5,83.9,164.4,83.9"/>
                    <path id="Fill-427" class="st0" d="M1228.5,2.2c-12.7,0-23,10.3-23,23s10.3,23,23,23s23-10.3,23-23S1241.2,2.2,1228.5,2.2       M1228.5,50.2c-13.8,0-25-11.2-25-25s11.2-25,25-25s25,11.2,25,25S1242.3,50.2,1228.5,50.2"/>
                    <path id="Fill-431" class="st0" d="M1195.8,256.3c-17.1,0-31,13.9-31,31s13.9,31,31,31s31-13.9,31-31S1212.9,256.3,1195.8,256.3       M1195.8,320.3c-18.2,0-33-14.8-33-33s14.8-33,33-33s33,14.8,33,33S1214,320.3,1195.8,320.3"/>
                    <path id="Fill-435" class="st0" d="M48.9,184.9c-17,0-30.8,13.8-30.8,30.8s13.8,30.8,30.8,30.8s30.7-13.8,30.7-30.8      S65.9,184.9,48.9,184.9 M48.9,248.4c-18.1,0-32.8-14.7-32.8-32.8s14.7-32.8,32.8-32.8s32.7,14.7,32.7,32.8S67,248.4,48.9,248.4"/>
                    <path id="Fill-439" class="st0" d="M1160,123c-14.9,0-27,12.1-27,27s12.1,27,27,27c14.9,0,27-12.1,27-27S1174.9,123,1160,123       M1160,179c-16,0-29-13-29-29s13-29,29-29s29,13,29,29S1176,179,1160,179"/>
                    <path id="Fill-443" class="st0" d="M193.5,279c-12.7,0-23,10.3-23,23c0,12.7,10.3,23,23,23c12.7,0,23-10.3,23-23      C216.5,289.4,206.2,279,193.5,279 M193.5,327.1c-13.8,0-25-11.2-25-25c0-13.8,11.2-25,25-25s25,11.2,25,25      C218.5,315.8,207.3,327.1,193.5,327.1"/>
                    <path id="Fill-447" class="st0" d="M29.4,72.9c-14.9,0-27,12.1-27,27s12.1,27,27,27s27-12.1,27-27S44.3,72.9,29.4,72.9       M29.4,128.9c-16,0-29-13-29-29s13-29,29-29c16,0,29,13,29,29S45.4,128.9,29.4,128.9"/>
                    <path id="Fill-451" class="st0" d="M1288.3,184c-10.5,0-19,8.5-19,19s8.5,19,19,19c10.5,0,19-8.5,19-19S1298.8,184,1288.3,184       M1288.3,224c-11.6,0-21-9.4-21-21s9.4-21,21-21s21,9.4,21,21S1299.9,224,1288.3,224"/>
                    <path id="Fill-455" class="st0" d="M123,131.2c-10.5,0-19,8.5-19,19s8.5,19,19,19s19-8.5,19-19S133.5,131.2,123,131.2       M123,171.2c-11.6,0-21-9.4-21-21s9.4-21,21-21s21,9.4,21,21S134.6,171.2,123,171.2"/>
                    <path id="Fill-459" class="st0" d="M940.5,400c-0.6,0-1-0.4-1-1v-71.4l-22.2-12.9c-7.6,0-174.5-0.2-181.8-0.2h-0.3l-23.7-13.7      V248c0-0.6,0.4-1,1-1s1,0.4,1,1v51.6l22.3,12.7c7.9,0,181.5,0.2,181.8,0.2h0.3l23.7,13.9V399C941.5,399.6,941.1,400,940.5,400"/>
                </g>
            </g>
        </g>
    </g>
</svg>